<svg xmlns="http://www.w3.org/2000/svg" width="1800" height="610" viewBox="0 0 1800 610"><defs><marker id="arrow" viewBox="0 0 10 10" refX="9" refY="5" markerWidth="7" markerHeight="7" orient="auto-start-reverse"><path d="M 0 0 L 10 5 L 0 10 z" fill="context-stroke"/></marker></defs><rect width="100%" height="100%" fill="#FFFFFF"/><rect x="20" y="20" width="425" height="470" rx="8" fill="#EDF4FA" stroke="#2E6F9E" stroke-width="2.5"/><rect x="20" y="20" width="425" height="58" rx="8" fill="#2E6F9E" stroke="#2E6F9E" stroke-width="0"/><text text-anchor="middle" font-family="Arial, sans-serif" font-size="25" font-weight="700" fill="#FFFFFF"><tspan x="232.5" y="57.5">(A) LOCAL CHECKS</tspan></text><text text-anchor="middle" font-family="Arial, sans-serif" font-size="25" font-weight="700" fill="#233A4D"><tspan x="232.5" y="103.0">C1: each local contract</tspan><tspan x="232.5" y="131.0">holds</tspan></text><line x1="38" y1="430" x2="427" y2="432" stroke="#AAB7BE" stroke-width="2" stroke-linecap="round"/><rect x="465" y="20" width="425" height="470" rx="8" fill="#EAF6F4" stroke="#168A86" stroke-width="2.5"/><rect x="465" y="20" width="425" height="58" rx="8" fill="#168A86" stroke="#168A86" stroke-width="0"/><text text-anchor="middle" font-family="Arial, sans-serif" font-size="25" font-weight="700" fill="#FFFFFF"><tspan x="677.5" y="57.5">(B) SHARED ASSUMPTION</tspan></text><text text-anchor="middle" font-family="Arial, sans-serif" font-size="25" font-weight="700" fill="#233A4D"><tspan x="677.5" y="103.0">Subsystems reuse one contact</tspan><tspan x="677.5" y="131.0">state</tspan></text><line x1="483" y1="430" x2="872" y2="432" stroke="#AAB7BE" stroke-width="2" stroke-linecap="round"/><rect x="910" y="20" width="425" height="470" rx="8" fill="#FCF4E5" stroke="#C88719" stroke-width="2.5"/><rect x="910" y="20" width="425" height="58" rx="8" fill="#C88719" stroke="#C88719" stroke-width="0"/><text text-anchor="middle" font-family="Arial, sans-serif" font-size="25" font-weight="700" fill="#FFFFFF"><tspan x="1122.5" y="57.5">(C) CONTEXT SHIFT</tspan></text><text text-anchor="middle" font-family="Arial, sans-serif" font-size="25" font-weight="700" fill="#233A4D"><tspan x="1122.5" y="103.0">C2: the interface state</tspan><tspan x="1122.5" y="131.0">becomes stale</tspan></text><line x1="928" y1="430" x2="1317" y2="432" stroke="#AAB7BE" stroke-width="2" stroke-linecap="round"/><rect x="1355" y="20" width="425" height="470" rx="8" fill="#FBEDEA" stroke="#D95D4F" stroke-width="2.5"/><rect x="1355" y="20" width="425" height="58" rx="8" fill="#D95D4F" stroke="#D95D4F" stroke-width="0"/><text text-anchor="middle" font-family="Arial, sans-serif" font-size="25" font-weight="700" fill="#FFFFFF"><tspan x="1567.5" y="57.5">(D) PROPAGATION</tspan></text><text text-anchor="middle" font-family="Arial, sans-serif" font-size="25" font-weight="700" fill="#233A4D"><tspan x="1567.5" y="103.0">C3 leads to C4: unsafe</tspan><tspan x="1567.5" y="131.0">trajectory</tspan></text><line x1="1373" y1="430" x2="1762" y2="432" stroke="#AAB7BE" stroke-width="2" stroke-linecap="round"/><ellipse cx="143.0" cy="185.0" rx="31.0" ry="27.0" fill="#F7FAFB" stroke="#243B4A" stroke-width="3"/><ellipse cx="131.0" cy="180.0" rx="4.0" ry="4.0" fill="#2A9D8F" stroke="#2A9D8F" stroke-width="1"/><ellipse cx="155.0" cy="180.0" rx="4.0" ry="4.0" fill="#2A9D8F" stroke="#2A9D8F" stroke-width="1"/><rect x="95" y="216" width="96" height="108" rx="18" fill="#F7FAFB" stroke="#243B4A" stroke-width="3"/><rect x="118" y="240" width="50" height="27" rx="8" fill="#E8F4F3" stroke="#2A9D8F" stroke-width="2"/><text text-anchor="middle" font-family="Arial, sans-serif" font-size="17" font-weight="700" fill="#243B4A"><tspan x="143.0" y="259.3">STATE</tspan></text><line x1="78" y1="228" x2="98" y2="314" stroke="#243B4A" stroke-width="7" stroke-linecap="round"/><line x1="188" y1="228" x2="208" y2="314" stroke="#243B4A" stroke-width="7" stroke-linecap="round"/><line x1="117" y1="320" x2="122" y2="410" stroke="#243B4A" stroke-width="9" stroke-linecap="round"/><line x1="164" y1="320" x2="169" y2="410" stroke="#243B4A" stroke-width="9" stroke-linecap="round"/><line x1="96" y1="403" x2="134" y2="406" stroke="#243B4A" stroke-width="9" stroke-linecap="round"/><line x1="153" y1="403" x2="191" y2="406" stroke="#243B4A" stroke-width="9" stroke-linecap="round"/><ellipse cx="354.0" cy="202.0" rx="24.0" ry="24.0" fill="#F3C7A5" stroke="#233A4D" stroke-width="3"/><rect x="317" y="230" width="74" height="112" rx="18" fill="#E8EEF2" stroke="#233A4D" stroke-width="3"/><line x1="318" y1="243" x2="321" y2="339" stroke="#233A4D" stroke-width="7" stroke-linecap="round"/><line x1="387" y1="243" x2="390" y2="339" stroke="#233A4D" stroke-width="7" stroke-linecap="round"/><line x1="337" y1="338" x2="340" y2="430" stroke="#233A4D" stroke-width="8" stroke-linecap="round"/><line x1="370" y1="338" x2="373" y2="430" stroke="#233A4D" stroke-width="8" stroke-linecap="round"/><rect x="205" y="160" width="166" height="44" rx="14" fill="#FFFFFF" stroke="#23966F" stroke-width="2.5"/><text text-anchor="middle" font-family="Arial, sans-serif" font-size="19" font-weight="700" fill="#176747"><tspan x="288.0" y="188.5">PERCEPTION PASS</tspan></text><rect x="205" y="221" width="166" height="44" rx="14" fill="#FFFFFF" stroke="#23966F" stroke-width="2.5"/><text text-anchor="middle" font-family="Arial, sans-serif" font-size="19" font-weight="700" fill="#176747"><tspan x="288.0" y="249.5">PLANNING PASS</tspan></text><rect x="205" y="282" width="166" height="44" rx="14" fill="#FFFFFF" stroke="#23966F" stroke-width="2.5"/><text text-anchor="middle" font-family="Arial, sans-serif" font-size="19" font-weight="700" fill="#176747"><tspan x="288.0" y="310.5">CONTROL PASS</tspan></text><text text-anchor="middle" font-family="Arial, sans-serif" font-size="21" font-weight="700" fill="#176747"><tspan x="230.0" y="449.4">All modules pass isolated</tspan><tspan x="230.0" y="472.9">checks</tspan></text><ellipse cx="588.0" cy="185.0" rx="31.0" ry="27.0" fill="#F7FAFB" stroke="#243B4A" stroke-width="3"/><ellipse cx="576.0" cy="180.0" rx="4.0" ry="4.0" fill="#2A9D8F" stroke="#2A9D8F" stroke-width="1"/><ellipse cx="600.0" cy="180.0" rx="4.0" ry="4.0" fill="#2A9D8F" stroke="#2A9D8F" stroke-width="1"/><rect x="540" y="216" width="96" height="108" rx="18" fill="#F7FAFB" stroke="#243B4A" stroke-width="3"/><rect x="563" y="240" width="50" height="27" rx="8" fill="#E8F4F3" stroke="#2A9D8F" stroke-width="2"/><text text-anchor="middle" font-family="Arial, sans-serif" font-size="17" font-weight="700" fill="#243B4A"><tspan x="588.0" y="259.3">STATE</tspan></text><line x1="523" y1="228" x2="543" y2="314" stroke="#243B4A" stroke-width="7" stroke-linecap="round"/><line x1="633" y1="228" x2="653" y2="314" stroke="#243B4A" stroke-width="7" stroke-linecap="round"/><line x1="562" y1="320" x2="567" y2="410" stroke="#243B4A" stroke-width="9" stroke-linecap="round"/><line x1="609" y1="320" x2="614" y2="410" stroke="#243B4A" stroke-width="9" stroke-linecap="round"/><line x1="541" y1="403" x2="579" y2="406" stroke="#243B4A" stroke-width="9" stroke-linecap="round"/><line x1="598" y1="403" x2="636" y2="406" stroke="#243B4A" stroke-width="9" stroke-linecap="round"/><ellipse cx="799.0" cy="202.0" rx="24.0" ry="24.0" fill="#F3C7A5" stroke="#233A4D" stroke-width="3"/><rect x="762" y="230" width="74" height="112" rx="18" fill="#E8EEF2" stroke="#233A4D" stroke-width="3"/><line x1="763" y1="243" x2="766" y2="339" stroke="#233A4D" stroke-width="7" stroke-linecap="round"/><line x1="832" y1="243" x2="835" y2="339" stroke="#233A4D" stroke-width="7" stroke-linecap="round"/><line x1="782" y1="338" x2="785" y2="430" stroke="#233A4D" stroke-width="8" stroke-linecap="round"/><line x1="815" y1="338" x2="818" y2="430" stroke="#233A4D" stroke-width="8" stroke-linecap="round"/><rect x="650" y="163" width="205" height="58" rx="14" fill="#FFFFFF" stroke="#168A86" stroke-width="3"/><text text-anchor="middle" font-family="Arial, sans-serif" font-size="20" font-weight="700" fill="#233A4D"><tspan x="752.5" y="187.6">SHARED CONTACT</tspan><tspan x="752.5" y="210.0">STATE</tspan></text><rect x="635" y="258" width="235" height="43" rx="12" fill="#FFFFFF" stroke="#168A86" stroke-width="2"/><text text-anchor="middle" font-family="Arial, sans-serif" font-size="18" font-weight="700" fill="#233A4D"><tspan x="752.5" y="285.6">PERCEPTION</tspan></text><line x1="750" y1="258" x2="750" y2="222" stroke="#168A86" stroke-width="3" stroke-linecap="round" marker-end="url(#arrow)"/><rect x="635" y="318" width="235" height="43" rx="12" fill="#FFFFFF" stroke="#168A86" stroke-width="2"/><text text-anchor="middle" font-family="Arial, sans-serif" font-size="18" font-weight="700" fill="#233A4D"><tspan x="752.5" y="345.6">WHOLE-BODY PLAN</tspan></text><line x1="750" y1="318" x2="750" y2="222" stroke="#168A86" stroke-width="3" stroke-linecap="round" marker-end="url(#arrow)"/><rect x="635" y="378" width="235" height="43" rx="12" fill="#FFFFFF" stroke="#168A86" stroke-width="2"/><text text-anchor="middle" font-family="Arial, sans-serif" font-size="18" font-weight="700" fill="#233A4D"><tspan x="752.5" y="405.6">BALANCE CONTROL</tspan></text><line x1="750" y1="378" x2="750" y2="222" stroke="#168A86" stroke-width="3" stroke-linecap="round" marker-end="url(#arrow)"/><text text-anchor="middle" font-family="Arial, sans-serif" font-size="20" font-weight="400" fill="#233A4D"><tspan x="675.0" y="449.6">Coupling makes one assumption</tspan><tspan x="675.0" y="472.0">consequential</tspan></text><ellipse cx="1033.0" cy="185.0" rx="31.0" ry="27.0" fill="#F7FAFB" stroke="#243B4A" stroke-width="3"/><ellipse cx="1021.0" cy="180.0" rx="4.0" ry="4.0" fill="#2A9D8F" stroke="#2A9D8F" stroke-width="1"/><ellipse cx="1045.0" cy="180.0" rx="4.0" ry="4.0" fill="#2A9D8F" stroke="#2A9D8F" stroke-width="1"/><rect x="985" y="216" width="96" height="108" rx="18" fill="#F7FAFB" stroke="#243B4A" stroke-width="3"/><rect x="1008" y="240" width="50" height="27" rx="8" fill="#E8F4F3" stroke="#2A9D8F" stroke-width="2"/><text text-anchor="middle" font-family="Arial, sans-serif" font-size="17" font-weight="700" fill="#243B4A"><tspan x="1033.0" y="259.3">STATE</tspan></text><line x1="968" y1="228" x2="988" y2="314" stroke="#243B4A" stroke-width="7" stroke-linecap="round"/><line x1="1078" y1="228" x2="1098" y2="314" stroke="#243B4A" stroke-width="7" stroke-linecap="round"/><line x1="1007" y1="320" x2="1012" y2="410" stroke="#243B4A" stroke-width="9" stroke-linecap="round"/><line x1="1054" y1="320" x2="1059" y2="410" stroke="#243B4A" stroke-width="9" stroke-linecap="round"/><line x1="986" y1="403" x2="1024" y2="406" stroke="#243B4A" stroke-width="9" stroke-linecap="round"/><line x1="1043" y1="403" x2="1081" y2="406" stroke="#243B4A" stroke-width="9" stroke-linecap="round"/><ellipse cx="1234.0" cy="202.0" rx="24.0" ry="24.0" fill="#FFFFFF" stroke="#71828C" stroke-width="3"/><rect x="1197" y="230" width="74" height="112" rx="18" fill="#FFFFFF" stroke="#71828C" stroke-width="3"/><line x1="1198" y1="243" x2="1201" y2="339" stroke="#71828C" stroke-width="7" stroke-linecap="round"/><line x1="1267" y1="243" x2="1270" y2="339" stroke="#71828C" stroke-width="7" stroke-linecap="round"/><line x1="1217" y1="338" x2="1220" y2="430" stroke="#71828C" stroke-width="8" stroke-linecap="round"/><line x1="1250" y1="338" x2="1253" y2="430" stroke="#71828C" stroke-width="8" stroke-linecap="round"/><ellipse cx="1319.0" cy="202.0" rx="24.0" ry="24.0" fill="#F3C7A5" stroke="#233A4D" stroke-width="3"/><rect x="1282" y="230" width="74" height="112" rx="18" fill="#E8EEF2" stroke="#233A4D" stroke-width="3"/><line x1="1283" y1="243" x2="1286" y2="339" stroke="#233A4D" stroke-width="7" stroke-linecap="round"/><line x1="1352" y1="243" x2="1355" y2="339" stroke="#233A4D" stroke-width="7" stroke-linecap="round"/><line x1="1302" y1="338" x2="1305" y2="430" stroke="#233A4D" stroke-width="8" stroke-linecap="round"/><line x1="1335" y1="338" x2="1338" y2="430" stroke="#233A4D" stroke-width="8" stroke-linecap="round"/><line x1="1232" y1="170" x2="1303" y2="170" stroke="#C88719" stroke-width="4" stroke-linecap="round" marker-end="url(#arrow)"/><rect x="1060" y="162" width="172" height="56" rx="12" fill="#FFF8E9" stroke="#C88719" stroke-width="3"/><text text-anchor="middle" font-family="Arial, sans-serif" font-size="20" font-weight="700" fill="#83560E"><tspan x="1146.0" y="196.8">STATE: OLD POSE</tspan></text><line x1="1145" y1="220" x2="1205" y2="275" stroke="#C88719" stroke-width="3" stroke-linecap="round" stroke-dasharray="7 5" marker-end="url(#arrow)"/><rect x="1085" y="342" width="240" height="55" rx="12" fill="#FFFFFF" stroke="#C88719" stroke-width="3"/><text text-anchor="middle" font-family="Arial, sans-serif" font-size="21" font-weight="700" fill="#83560E"><tspan x="1205.0" y="376.6">TIMING MISMATCH</tspan></text><text text-anchor="middle" font-family="Arial, sans-serif" font-size="19" font-weight="400" fill="#233A4D"><tspan x="1120.0" y="449.8">The components still satisfy</tspan><tspan x="1120.0" y="471.1">their own contracts</tspan></text><ellipse cx="1463.0" cy="185.0" rx="31.0" ry="27.0" fill="#F7FAFB" stroke="#243B4A" stroke-width="3"/><ellipse cx="1451.0" cy="180.0" rx="4.0" ry="4.0" fill="#D95D4F" stroke="#D95D4F" stroke-width="1"/><ellipse cx="1475.0" cy="180.0" rx="4.0" ry="4.0" fill="#D95D4F" stroke="#D95D4F" stroke-width="1"/><rect x="1415" y="216" width="96" height="108" rx="18" fill="#F7FAFB" stroke="#243B4A" stroke-width="3"/><rect x="1438" y="240" width="50" height="27" rx="8" fill="#E8F4F3" stroke="#D95D4F" stroke-width="2"/><text text-anchor="middle" font-family="Arial, sans-serif" font-size="17" font-weight="700" fill="#243B4A"><tspan x="1463.0" y="259.3">STATE</tspan></text><line x1="1398" y1="228" x2="1418" y2="314" stroke="#243B4A" stroke-width="7" stroke-linecap="round"/><line x1="1508" y1="228" x2="1528" y2="314" stroke="#243B4A" stroke-width="7" stroke-linecap="round"/><line x1="1437" y1="320" x2="1442" y2="410" stroke="#243B4A" stroke-width="9" stroke-linecap="round"/><line x1="1484" y1="320" x2="1489" y2="410" stroke="#243B4A" stroke-width="9" stroke-linecap="round"/><line x1="1416" y1="403" x2="1454" y2="406" stroke="#243B4A" stroke-width="9" stroke-linecap="round"/><line x1="1473" y1="403" x2="1511" y2="406" stroke="#243B4A" stroke-width="9" stroke-linecap="round"/><ellipse cx="1714.0" cy="202.0" rx="24.0" ry="24.0" fill="#F3C7A5" stroke="#233A4D" stroke-width="3"/><rect x="1677" y="230" width="74" height="112" rx="18" fill="#E8EEF2" stroke="#233A4D" stroke-width="3"/><line x1="1678" y1="243" x2="1681" y2="339" stroke="#233A4D" stroke-width="7" stroke-linecap="round"/><line x1="1747" y1="243" x2="1750" y2="339" stroke="#233A4D" stroke-width="7" stroke-linecap="round"/><line x1="1697" y1="338" x2="1700" y2="430" stroke="#233A4D" stroke-width="8" stroke-linecap="round"/><line x1="1730" y1="338" x2="1733" y2="430" stroke="#233A4D" stroke-width="8" stroke-linecap="round"/><rect x="1498" y="166" width="175" height="47" rx="12" fill="#FFFFFF" stroke="#D95D4F" stroke-width="2.5"/><text text-anchor="middle" font-family="Arial, sans-serif" font-size="18" font-weight="700" fill="#233A4D"><tspan x="1585.5" y="195.6">STALE STATE</tspan></text><rect x="1498" y="236" width="175" height="47" rx="12" fill="#FFFFFF" stroke="#D95D4F" stroke-width="2.5"/><text text-anchor="middle" font-family="Arial, sans-serif" font-size="18" font-weight="700" fill="#233A4D"><tspan x="1585.5" y="265.6">WHOLE-BODY PLAN</tspan></text><rect x="1498" y="306" width="175" height="47" rx="12" fill="#FFFFFF" stroke="#D95D4F" stroke-width="2.5"/><text text-anchor="middle" font-family="Arial, sans-serif" font-size="18" font-weight="700" fill="#233A4D"><tspan x="1585.5" y="335.6">BALANCE CONTROL</tspan></text><line x1="1585" y1="215" x2="1585" y2="234" stroke="#D95D4F" stroke-width="4" stroke-linecap="round" marker-end="url(#arrow)"/><line x1="1585" y1="285" x2="1585" y2="304" stroke="#D95D4F" stroke-width="4" stroke-linecap="round" marker-end="url(#arrow)"/><line x1="1585" y1="355" x2="1660" y2="395" stroke="#D95D4F" stroke-width="4" stroke-linecap="round" marker-end="url(#arrow)"/><rect x="1652" y="360" width="92" height="58" rx="12" fill="#FFF4F2" stroke="#D95D4F" stroke-width="4"/><text text-anchor="middle" font-family="Arial, sans-serif" font-size="34" font-weight="700" fill="#D95D4F"><tspan x="1698.0" y="400.6">!</tspan></text><text text-anchor="middle" font-family="Arial, sans-serif" font-size="19" font-weight="700" fill="#8A352D"><tspan x="1580.0" y="449.8">Unsafe path; harm additionally</tspan><tspan x="1580.0" y="471.1">requires exposure</tspan></text><rect x="20" y="510" width="870" height="78" rx="10" fill="#EAF6F0" stroke="#23966F" stroke-width="3"/><text text-anchor="middle" font-family="Arial, sans-serif" font-size="24" font-weight="700" fill="#176747"><tspan x="455.0" y="557.2">CONTAINED: refresh state → replan → deviation stops (C3 fails)</tspan></text><rect x="910" y="510" width="870" height="78" rx="10" fill="#FBEDEA" stroke="#D95D4F" stroke-width="3"/><text text-anchor="middle" font-family="Arial, sans-serif" font-size="24" font-weight="700" fill="#8A352D"><tspan x="1345.0" y="543.7">CASCADE: reuse stale state → downstream propagation → unsafe</tspan><tspan x="1345.0" y="570.6">trajectory</tspan></text></svg>